<svg width="1292" height="1174" viewBox="0 0 1292 1174" fill="none" xmlns="http://www.w3.org/2000/svg">
<path d="M0 598H707V1018H0V598Z" fill="white"/>
<path d="M83.1702 544H707V598H0L83.1702 544Z" fill="white"/>
<path d="M707 744H1076V1018H707V744Z" fill="white"/>
<path d="M482 418H541V744H482V418Z" fill="white"/>
<path d="M774 574H833V933H774V574Z" fill="white"/>
<path d="M945 437H1004V796H945V437Z" fill="white"/>
<path d="M1076 571H1292V1018H1076V571Z" fill="white"/>
<path d="M531 347.5C531 358.27 522.27 367 511.5 367C500.73 367 492 358.27 492 347.5C492 336.73 500.73 328 511.5 328C522.27 328 531 336.73 531 347.5Z" fill="white"/>
<path d="M994 369.5C994 380.27 985.27 389 974.5 389C963.73 389 955 380.27 955 369.5C955 358.73 963.73 350 974.5 350C985.27 350 994 358.73 994 369.5Z" fill="white"/>
<path d="M553 237C553 259.644 534.644 278 512 278C489.356 278 471 259.644 471 237C471 214.356 489.356 196 512 196C534.644 196 553 214.356 553 237Z" fill="white"/>
<path d="M1016 259C1016 281.644 997.644 300 975 300C952.356 300 934 281.644 934 259C934 236.356 952.356 218 975 218C997.644 218 1016 236.356 1016 259Z" fill="white"/>
<path d="M582 70C582 108.66 550.66 140 512 140C473.34 140 442 108.66 442 70C442 31.3401 473.34 0 512 0C550.66 0 582 31.3401 582 70Z" fill="white"/>
<path d="M1292 575C1292 613.66 1243.65 645 1184 645C1124.35 645 1076 613.66 1076 575C1076 536.34 1124.35 505 1184 505C1243.65 505 1292 536.34 1292 575Z" fill="white"/>
</svg>
